<svg xmlns="http://www.w3.org/2000/svg" viewBox="0 0 512 512">

  <rect width="512" height="512" rx="90" fill="#07141d"/>

  <circle
    cx="256"
    cy="220"
    r="160"
    fill="#0d1f29"
    stroke="#00aaff"
    stroke-width="10"
  />

  <circle
    cx="256"
    cy="220"
    r="125"
    fill="#111111"
    stroke="#ffffff"
    stroke-width="7"
  />

  <circle
    cx="256"
    cy="220"
    r="95"
    fill="none"
    stroke="#00aaff"
    stroke-width="14"
  />

  <circle
    cx="256"
    cy="220"
    r="62"
    fill="none"
    stroke="#ffffff"
    stroke-width="6"
  />

  <circle
    cx="256"
    cy="220"
    r="28"
    fill="#00aaff"
  />

  <circle
    cx="256"
    cy="220"
    r="10"
    fill="#ffffff"
  />

  <g stroke="#777777" stroke-width="3">

    <line
      x1="256"
      y1="95"
      x2="256"
      y2="345"
    />

    <line
      x1="131"
      y1="220"
      x2="381"
      y2="220"
    />

    <line
      x1="168"
      y1="132"
      x2="344"
      y2="308"
    />

    <line
      x1="344"
      y1="132"
      x2="168"
      y2="308"
    />

  </g>

  <g transform="rotate(-42 256 220)">

    <line
      x1="256"
      y1="220"
      x2="256"
      y2="55"
      stroke="#ffffff"
      stroke-width="13"
      stroke-linecap="round"
    />

    <polygon
      points="256,220 245,184 267,184"
      fill="#ffffff"
    />

    <polygon
      points="256,60 220,25 250,80"
      fill="#00aaff"
    />

    <polygon
      points="256,60 292,25 262,80"
      fill="#00ff88"
    />

  </g>

  <text
    x="256"
    y="425"
    text-anchor="middle"
    fill="#ffffff"
    font-family="Arial, sans-serif"
    font-size="52"
    font-weight="900"
  >
    DART HUB
  </text>

  <rect
    x="155"
    y="445"
    width="202"
    height="7"
    rx="4"
    fill="#00aaff"
  />

</svg>